<svg width="187" height="44" viewBox="0 0 187 44" fill="none" xmlns="http://www.w3.org/2000/svg">
<path d="M45.4687 14.35L44.1287 13.79V22.82L46.5587 16.96C46.9687 15.94 46.4987 14.77 45.4687 14.35ZM25.9687 18.05L30.9287 30C31.0747 30.3636 31.3239 30.6765 31.6454 30.9004C31.967 31.1243 32.347 31.2493 32.7387 31.26C32.9987 31.26 33.2687 31.21 33.5287 31.1L40.8987 28.05C41.6487 27.74 42.1087 27 42.1287 26.26C42.1387 26 42.0887 25.71 41.9987 25.45L36.9987 13.5C36.8578 13.1337 36.6097 12.8184 36.2867 12.5954C35.9638 12.3724 35.5811 12.252 35.1887 12.25C34.9287 12.25 34.6687 12.31 34.4187 12.4L27.0587 15.45C26.5694 15.6503 26.1798 16.0368 25.9754 16.5243C25.771 17.0119 25.7686 17.5607 25.9687 18.05ZM42.1187 14.25C42.1187 13.7196 41.9079 13.2109 41.5329 12.8358C41.1578 12.4607 40.6491 12.25 40.1187 12.25H38.6687L42.1187 20.59" fill="#005BC2"/>
<path d="M45.4687 14.35L44.1287 13.79V22.82L46.5587 16.96C46.9687 15.94 46.4987 14.77 45.4687 14.35ZM25.9687 18.05L30.9287 30C31.0747 30.3636 31.3239 30.6765 31.6454 30.9004C31.967 31.1243 32.347 31.2493 32.7387 31.26C32.9987 31.26 33.2687 31.21 33.5287 31.1L40.8987 28.05C41.6487 27.74 42.1087 27 42.1287 26.26C42.1387 26 42.0887 25.71 41.9987 25.45L36.9987 13.5C36.8578 13.1337 36.6097 12.8184 36.2867 12.5954C35.9638 12.3724 35.5811 12.252 35.1887 12.25C34.9287 12.25 34.6687 12.31 34.4187 12.4L27.0587 15.45C26.5694 15.6503 26.1798 16.0368 25.9754 16.5243C25.771 17.0119 25.7686 17.5607 25.9687 18.05ZM42.1187 14.25C42.1187 13.7196 41.9079 13.2109 41.5329 12.8358C41.1578 12.4607 40.6491 12.25 40.1187 12.25H38.6687L42.1187 20.59" fill="#707075"/>
<path d="M68.7727 19.5H67.3636C67.2803 19.0947 67.1345 18.7386 66.9261 18.4318C66.7216 18.125 66.4716 17.8674 66.1761 17.6591C65.8845 17.447 65.5606 17.2879 65.2045 17.1818C64.8485 17.0758 64.4773 17.0227 64.0909 17.0227C63.3864 17.0227 62.7481 17.2008 62.1761 17.5568C61.608 17.9129 61.1553 18.4375 60.8182 19.1307C60.4848 19.8239 60.3182 20.6742 60.3182 21.6818C60.3182 22.6894 60.4848 23.5398 60.8182 24.233C61.1553 24.9261 61.608 25.4508 62.1761 25.8068C62.7481 26.1629 63.3864 26.3409 64.0909 26.3409C64.4773 26.3409 64.8485 26.2879 65.2045 26.1818C65.5606 26.0758 65.8845 25.9186 66.1761 25.7102C66.4716 25.4981 66.7216 25.2386 66.9261 24.9318C67.1345 24.6212 67.2803 24.2652 67.3636 23.8636H68.7727C68.6667 24.4583 68.4735 24.9905 68.1932 25.4602C67.9129 25.9299 67.5644 26.3295 67.1477 26.6591C66.7311 26.9848 66.2633 27.233 65.7443 27.4034C65.2292 27.5739 64.678 27.6591 64.0909 27.6591C63.0985 27.6591 62.2159 27.4167 61.4432 26.9318C60.6705 26.447 60.0625 25.7576 59.6193 24.8636C59.1761 23.9697 58.9545 22.9091 58.9545 21.6818C58.9545 20.4545 59.1761 19.3939 59.6193 18.5C60.0625 17.6061 60.6705 16.9167 61.4432 16.4318C62.2159 15.947 63.0985 15.7045 64.0909 15.7045C64.678 15.7045 65.2292 15.7898 65.7443 15.9602C66.2633 16.1307 66.7311 16.3807 67.1477 16.7102C67.5644 17.036 67.9129 17.4337 68.1932 17.9034C68.4735 18.3693 68.6667 18.9015 68.7727 19.5ZM73.4361 27.7045C72.883 27.7045 72.3812 27.6004 71.9304 27.392C71.4796 27.1799 71.1217 26.875 70.8565 26.4773C70.5914 26.0758 70.4588 25.5909 70.4588 25.0227C70.4588 24.5227 70.5573 24.1174 70.7543 23.8068C70.9512 23.4924 71.2145 23.2462 71.544 23.0682C71.8736 22.8902 72.2372 22.7576 72.6349 22.6705C73.0365 22.5795 73.4399 22.5076 73.8452 22.4545C74.3755 22.3864 74.8054 22.3352 75.1349 22.3011C75.4683 22.2633 75.7107 22.2008 75.8622 22.1136C76.0175 22.0265 76.0952 21.875 76.0952 21.6591V21.6136C76.0952 21.053 75.9418 20.6174 75.6349 20.3068C75.3319 19.9962 74.8717 19.8409 74.2543 19.8409C73.6141 19.8409 73.1122 19.9811 72.7486 20.2614C72.3849 20.5417 72.1293 20.8409 71.9815 21.1591L70.7088 20.7045C70.9361 20.1742 71.2391 19.7614 71.6179 19.4659C72.0005 19.1667 72.4171 18.9583 72.8679 18.8409C73.3224 18.7197 73.7694 18.6591 74.2088 18.6591C74.4891 18.6591 74.8111 18.6932 75.1747 18.7614C75.5421 18.8258 75.8963 18.9602 76.2372 19.1648C76.5819 19.3693 76.8679 19.678 77.0952 20.0909C77.3224 20.5038 77.4361 21.0568 77.4361 21.75V27.5H76.0952V26.3182H76.027C75.9361 26.5076 75.7846 26.7102 75.5724 26.9261C75.3603 27.142 75.0781 27.3258 74.7259 27.4773C74.3736 27.6288 73.9437 27.7045 73.4361 27.7045ZM73.6406 26.5C74.1709 26.5 74.6179 26.3958 74.9815 26.1875C75.349 25.9792 75.6255 25.7102 75.8111 25.3807C76.0005 25.0511 76.0952 24.7045 76.0952 24.3409V23.1136C76.0384 23.1818 75.9134 23.2443 75.7202 23.3011C75.5308 23.3542 75.3111 23.4015 75.0611 23.4432C74.8149 23.4811 74.5743 23.5152 74.3395 23.5455C74.1084 23.572 73.9209 23.5947 73.777 23.6136C73.4285 23.6591 73.1027 23.733 72.7997 23.8352C72.5005 23.9337 72.258 24.0833 72.0724 24.2841C71.8906 24.4811 71.7997 24.75 71.7997 25.0909C71.7997 25.5568 71.9721 25.9091 72.3168 26.1477C72.6652 26.3826 73.1065 26.5 73.6406 26.5ZM79.8835 27.5V18.7727H81.179V20.0909H81.2699C81.429 19.6591 81.7169 19.3087 82.1335 19.0398C82.5502 18.7708 83.0199 18.6364 83.5426 18.6364C83.6411 18.6364 83.7642 18.6383 83.9119 18.642C84.0597 18.6458 84.1714 18.6515 84.2472 18.6591V20.0227C84.2017 20.0114 84.0975 19.9943 83.9347 19.9716C83.7756 19.9451 83.607 19.9318 83.429 19.9318C83.0047 19.9318 82.6259 20.0208 82.2926 20.1989C81.9631 20.3731 81.7017 20.6155 81.5085 20.9261C81.3191 21.233 81.2244 21.5833 81.2244 21.9773V27.5H79.8835ZM88.8665 27.6818C88.1392 27.6818 87.4972 27.4981 86.9403 27.1307C86.3835 26.7595 85.9479 26.2367 85.6335 25.5625C85.3191 24.8845 85.1619 24.0833 85.1619 23.1591C85.1619 22.2424 85.3191 21.447 85.6335 20.7727C85.9479 20.0985 86.3854 19.5777 86.946 19.2102C87.5066 18.8428 88.1544 18.6591 88.8892 18.6591C89.4574 18.6591 89.9063 18.7538 90.2358 18.9432C90.5691 19.1288 90.8229 19.3409 90.9972 19.5795C91.1752 19.8144 91.3134 20.0076 91.4119 20.1591H91.5256V15.8636H92.8665V27.5H91.571V26.1591H91.4119C91.3134 26.3182 91.1733 26.5189 90.9915 26.7614C90.8097 27 90.5502 27.214 90.2131 27.4034C89.8759 27.589 89.4271 27.6818 88.8665 27.6818ZM89.0483 26.4773C89.5862 26.4773 90.0407 26.3371 90.4119 26.0568C90.7831 25.7727 91.0653 25.3807 91.2585 24.8807C91.4517 24.3769 91.5483 23.7955 91.5483 23.1364C91.5483 22.4848 91.4536 21.9148 91.2642 21.4261C91.0748 20.9337 90.7945 20.5511 90.4233 20.2784C90.0521 20.0019 89.5938 19.8636 89.0483 19.8636C88.4801 19.8636 88.0066 20.0095 87.6278 20.3011C87.2528 20.589 86.9706 20.9811 86.7812 21.4773C86.5956 21.9697 86.5028 22.5227 86.5028 23.1364C86.5028 23.7576 86.5975 24.322 86.7869 24.8295C86.9801 25.3333 87.2642 25.7348 87.6392 26.0341C88.018 26.3295 88.4877 26.4773 89.0483 26.4773ZM101.69 20.7273L100.486 21.0682C100.41 20.8674 100.298 20.6723 100.151 20.483C100.007 20.2898 99.8097 20.1307 99.5597 20.0057C99.3097 19.8807 98.9896 19.8182 98.5994 19.8182C98.0653 19.8182 97.6203 19.9413 97.2642 20.1875C96.9119 20.4299 96.7358 20.7386 96.7358 21.1136C96.7358 21.447 96.857 21.7102 97.0994 21.9034C97.3419 22.0966 97.7206 22.2576 98.2358 22.3864L99.5312 22.7045C100.312 22.8939 100.893 23.1837 101.276 23.5739C101.658 23.9602 101.849 24.4583 101.849 25.0682C101.849 25.5682 101.705 26.0152 101.418 26.4091C101.134 26.803 100.736 27.1136 100.224 27.3409C99.7131 27.5682 99.1184 27.6818 98.4403 27.6818C97.5502 27.6818 96.8134 27.4886 96.2301 27.1023C95.6468 26.7159 95.2775 26.1515 95.1222 25.4091L96.3949 25.0909C96.5161 25.5606 96.7453 25.9129 97.0824 26.1477C97.4233 26.3826 97.8684 26.5 98.4176 26.5C99.0426 26.5 99.5388 26.3674 99.9062 26.1023C100.277 25.8333 100.463 25.5114 100.463 25.1364C100.463 24.8333 100.357 24.5795 100.145 24.375C99.9328 24.1667 99.607 24.0114 99.1676 23.9091L97.7131 23.5682C96.9138 23.3788 96.3267 23.0852 95.9517 22.6875C95.5805 22.286 95.3949 21.7841 95.3949 21.1818C95.3949 20.6894 95.5331 20.2538 95.8097 19.875C96.09 19.4962 96.4706 19.1989 96.9517 18.983C97.4366 18.767 97.9858 18.6591 98.5994 18.6591C99.4631 18.6591 100.141 18.8485 100.634 19.2273C101.13 19.6061 101.482 20.1061 101.69 20.7273Z" fill="#005BC2"/>
<path d="M68.7727 19.5H67.3636C67.2803 19.0947 67.1345 18.7386 66.9261 18.4318C66.7216 18.125 66.4716 17.8674 66.1761 17.6591C65.8845 17.447 65.5606 17.2879 65.2045 17.1818C64.8485 17.0758 64.4773 17.0227 64.0909 17.0227C63.3864 17.0227 62.7481 17.2008 62.1761 17.5568C61.608 17.9129 61.1553 18.4375 60.8182 19.1307C60.4848 19.8239 60.3182 20.6742 60.3182 21.6818C60.3182 22.6894 60.4848 23.5398 60.8182 24.233C61.1553 24.9261 61.608 25.4508 62.1761 25.8068C62.7481 26.1629 63.3864 26.3409 64.0909 26.3409C64.4773 26.3409 64.8485 26.2879 65.2045 26.1818C65.5606 26.0758 65.8845 25.9186 66.1761 25.7102C66.4716 25.4981 66.7216 25.2386 66.9261 24.9318C67.1345 24.6212 67.2803 24.2652 67.3636 23.8636H68.7727C68.6667 24.4583 68.4735 24.9905 68.1932 25.4602C67.9129 25.9299 67.5644 26.3295 67.1477 26.6591C66.7311 26.9848 66.2633 27.233 65.7443 27.4034C65.2292 27.5739 64.678 27.6591 64.0909 27.6591C63.0985 27.6591 62.2159 27.4167 61.4432 26.9318C60.6705 26.447 60.0625 25.7576 59.6193 24.8636C59.1761 23.9697 58.9545 22.9091 58.9545 21.6818C58.9545 20.4545 59.1761 19.3939 59.6193 18.5C60.0625 17.6061 60.6705 16.9167 61.4432 16.4318C62.2159 15.947 63.0985 15.7045 64.0909 15.7045C64.678 15.7045 65.2292 15.7898 65.7443 15.9602C66.2633 16.1307 66.7311 16.3807 67.1477 16.7102C67.5644 17.036 67.9129 17.4337 68.1932 17.9034C68.4735 18.3693 68.6667 18.9015 68.7727 19.5ZM73.4361 27.7045C72.883 27.7045 72.3812 27.6004 71.9304 27.392C71.4796 27.1799 71.1217 26.875 70.8565 26.4773C70.5914 26.0758 70.4588 25.5909 70.4588 25.0227C70.4588 24.5227 70.5573 24.1174 70.7543 23.8068C70.9512 23.4924 71.2145 23.2462 71.544 23.0682C71.8736 22.8902 72.2372 22.7576 72.6349 22.6705C73.0365 22.5795 73.4399 22.5076 73.8452 22.4545C74.3755 22.3864 74.8054 22.3352 75.1349 22.3011C75.4683 22.2633 75.7107 22.2008 75.8622 22.1136C76.0175 22.0265 76.0952 21.875 76.0952 21.6591V21.6136C76.0952 21.053 75.9418 20.6174 75.6349 20.3068C75.3319 19.9962 74.8717 19.8409 74.2543 19.8409C73.6141 19.8409 73.1122 19.9811 72.7486 20.2614C72.3849 20.5417 72.1293 20.8409 71.9815 21.1591L70.7088 20.7045C70.9361 20.1742 71.2391 19.7614 71.6179 19.4659C72.0005 19.1667 72.4171 18.9583 72.8679 18.8409C73.3224 18.7197 73.7694 18.6591 74.2088 18.6591C74.4891 18.6591 74.8111 18.6932 75.1747 18.7614C75.5421 18.8258 75.8963 18.9602 76.2372 19.1648C76.5819 19.3693 76.8679 19.678 77.0952 20.0909C77.3224 20.5038 77.4361 21.0568 77.4361 21.75V27.5H76.0952V26.3182H76.027C75.9361 26.5076 75.7846 26.7102 75.5724 26.9261C75.3603 27.142 75.0781 27.3258 74.7259 27.4773C74.3736 27.6288 73.9437 27.7045 73.4361 27.7045ZM73.6406 26.5C74.1709 26.5 74.6179 26.3958 74.9815 26.1875C75.349 25.9792 75.6255 25.7102 75.8111 25.3807C76.0005 25.0511 76.0952 24.7045 76.0952 24.3409V23.1136C76.0384 23.1818 75.9134 23.2443 75.7202 23.3011C75.5308 23.3542 75.3111 23.4015 75.0611 23.4432C74.8149 23.4811 74.5743 23.5152 74.3395 23.5455C74.1084 23.572 73.9209 23.5947 73.777 23.6136C73.4285 23.6591 73.1027 23.733 72.7997 23.8352C72.5005 23.9337 72.258 24.0833 72.0724 24.2841C71.8906 24.4811 71.7997 24.75 71.7997 25.0909C71.7997 25.5568 71.9721 25.9091 72.3168 26.1477C72.6652 26.3826 73.1065 26.5 73.6406 26.5ZM79.8835 27.5V18.7727H81.179V20.0909H81.2699C81.429 19.6591 81.7169 19.3087 82.1335 19.0398C82.5502 18.7708 83.0199 18.6364 83.5426 18.6364C83.6411 18.6364 83.7642 18.6383 83.9119 18.642C84.0597 18.6458 84.1714 18.6515 84.2472 18.6591V20.0227C84.2017 20.0114 84.0975 19.9943 83.9347 19.9716C83.7756 19.9451 83.607 19.9318 83.429 19.9318C83.0047 19.9318 82.6259 20.0208 82.2926 20.1989C81.9631 20.3731 81.7017 20.6155 81.5085 20.9261C81.3191 21.233 81.2244 21.5833 81.2244 21.9773V27.5H79.8835ZM88.8665 27.6818C88.1392 27.6818 87.4972 27.4981 86.9403 27.1307C86.3835 26.7595 85.9479 26.2367 85.6335 25.5625C85.3191 24.8845 85.1619 24.0833 85.1619 23.1591C85.1619 22.2424 85.3191 21.447 85.6335 20.7727C85.9479 20.0985 86.3854 19.5777 86.946 19.2102C87.5066 18.8428 88.1544 18.6591 88.8892 18.6591C89.4574 18.6591 89.9063 18.7538 90.2358 18.9432C90.5691 19.1288 90.8229 19.3409 90.9972 19.5795C91.1752 19.8144 91.3134 20.0076 91.4119 20.1591H91.5256V15.8636H92.8665V27.5H91.571V26.1591H91.4119C91.3134 26.3182 91.1733 26.5189 90.9915 26.7614C90.8097 27 90.5502 27.214 90.2131 27.4034C89.8759 27.589 89.4271 27.6818 88.8665 27.6818ZM89.0483 26.4773C89.5862 26.4773 90.0407 26.3371 90.4119 26.0568C90.7831 25.7727 91.0653 25.3807 91.2585 24.8807C91.4517 24.3769 91.5483 23.7955 91.5483 23.1364C91.5483 22.4848 91.4536 21.9148 91.2642 21.4261C91.0748 20.9337 90.7945 20.5511 90.4233 20.2784C90.0521 20.0019 89.5938 19.8636 89.0483 19.8636C88.4801 19.8636 88.0066 20.0095 87.6278 20.3011C87.2528 20.589 86.9706 20.9811 86.7812 21.4773C86.5956 21.9697 86.5028 22.5227 86.5028 23.1364C86.5028 23.7576 86.5975 24.322 86.7869 24.8295C86.9801 25.3333 87.2642 25.7348 87.6392 26.0341C88.018 26.3295 88.4877 26.4773 89.0483 26.4773ZM101.69 20.7273L100.486 21.0682C100.41 20.8674 100.298 20.6723 100.151 20.483C100.007 20.2898 99.8097 20.1307 99.5597 20.0057C99.3097 19.8807 98.9896 19.8182 98.5994 19.8182C98.0653 19.8182 97.6203 19.9413 97.2642 20.1875C96.9119 20.4299 96.7358 20.7386 96.7358 21.1136C96.7358 21.447 96.857 21.7102 97.0994 21.9034C97.3419 22.0966 97.7206 22.2576 98.2358 22.3864L99.5312 22.7045C100.312 22.8939 100.893 23.1837 101.276 23.5739C101.658 23.9602 101.849 24.4583 101.849 25.0682C101.849 25.5682 101.705 26.0152 101.418 26.4091C101.134 26.803 100.736 27.1136 100.224 27.3409C99.7131 27.5682 99.1184 27.6818 98.4403 27.6818C97.5502 27.6818 96.8134 27.4886 96.2301 27.1023C95.6468 26.7159 95.2775 26.1515 95.1222 25.4091L96.3949 25.0909C96.5161 25.5606 96.7453 25.9129 97.0824 26.1477C97.4233 26.3826 97.8684 26.5 98.4176 26.5C99.0426 26.5 99.5388 26.3674 99.9062 26.1023C100.277 25.8333 100.463 25.5114 100.463 25.1364C100.463 24.8333 100.357 24.5795 100.145 24.375C99.9328 24.1667 99.607 24.0114 99.1676 23.9091L97.7131 23.5682C96.9138 23.3788 96.3267 23.0852 95.9517 22.6875C95.5805 22.286 95.3949 21.7841 95.3949 21.1818C95.3949 20.6894 95.5331 20.2538 95.8097 19.875C96.09 19.4962 96.4706 19.1989 96.9517 18.983C97.4366 18.767 97.9858 18.6591 98.5994 18.6591C99.4631 18.6591 100.141 18.8485 100.634 19.2273C101.13 19.6061 101.482 20.1061 101.69 20.7273Z" fill="#707075"/>
</svg>
