<svg width="44" height="44" viewBox="0 0 44 44" fill="none" xmlns="http://www.w3.org/2000/svg">
<rect width="44" height="44" rx="22" fill="#007AFF"/>
<rect width="44" height="44" rx="22" fill="#E8EFFB"/>
<path d="M33 22L29 18V21H20V23H29V26M11 28V16C11 15.4696 11.2107 14.9609 11.5858 14.5858C11.9609 14.2107 12.4696 14 13 14H25C25.5304 14 26.0391 14.2107 26.4142 14.5858C26.7893 14.9609 27 15.4696 27 16V19H25V16H13V28H25V25H27V28C27 28.5304 26.7893 29.0391 26.4142 29.4142C26.0391 29.7893 25.5304 30 25 30H13C12.4696 30 11.9609 29.7893 11.5858 29.4142C11.2107 29.0391 11 28.5304 11 28Z" fill="#005BC2"/>
</svg>
