<svg width="44" height="44" viewBox="0 0 44 44" fill="none" xmlns="http://www.w3.org/2000/svg">
<rect width="44" height="44" rx="22" fill="#007AFF"/>
<rect width="44" height="44" rx="22" fill="#E8EFFB"/>
<path d="M18 14V26C18 26.5304 18.2107 27.0391 18.5858 27.4142C18.9609 27.7893 19.4696 28 20 28H28C28.5304 28 29.0391 27.7893 29.4142 27.4142C29.7893 27.0391 30 26.5304 30 26V17.242C30 16.9756 29.9467 16.7118 29.8433 16.4662C29.7399 16.2207 29.5885 15.9982 29.398 15.812L26.083 12.57C25.7094 12.2047 25.2076 12.0001 24.685 12H20C19.4696 12 18.9609 12.2107 18.5858 12.5858C18.2107 12.9609 18 13.4696 18 14Z" stroke="#005BC2" stroke-width="2" stroke-linecap="round" stroke-linejoin="round"/>
<path d="M26 28V30C26 30.5304 25.7893 31.0391 25.4142 31.4142C25.0391 31.7893 24.5304 32 24 32H16C15.4696 32 14.9609 31.7893 14.5858 31.4142C14.2107 31.0391 14 30.5304 14 30V19C14 18.4696 14.2107 17.9609 14.5858 17.5858C14.9609 17.2107 15.4696 17 16 17H18" stroke="#005BC2" stroke-width="2" stroke-linecap="round" stroke-linejoin="round"/>
</svg>
