<svg width="44" height="44" viewBox="0 0 44 44" fill="none" xmlns="http://www.w3.org/2000/svg">
<rect width="44" height="44" rx="22" fill="#007AFF"/>
<rect width="44" height="44" rx="22" fill="#E8EFFB"/>
<path d="M29.089 24.4383V28.8783C29.0888 29.5065 28.8391 30.1089 28.3949 30.5531C27.9507 30.9974 27.3483 31.247 26.72 31.2473H15.119C14.8068 31.2472 14.4977 31.1853 14.2094 31.0654C13.9211 30.9454 13.6594 30.7696 13.4392 30.5482C13.2191 30.3268 13.0449 30.064 12.9266 29.775C12.8083 29.486 12.7483 29.1765 12.75 28.8643V17.2763C12.7482 16.9645 12.8082 16.6555 12.9267 16.3671C13.0451 16.0788 13.2196 15.8168 13.4401 15.5963C13.6605 15.3759 13.9225 15.2014 14.2109 15.0829C14.4993 14.9645 14.8083 14.9044 15.12 14.9063H19.559" stroke="#005BC2" stroke-width="1.5" stroke-linecap="round" stroke-linejoin="round"/>
<path d="M29.0909 18.9957L25.0059 14.9097M16.8359 25.8037V23.6387C16.8379 23.2817 16.9799 22.9387 17.2309 22.6857L26.7629 13.1537C26.8894 13.0258 27.04 12.9243 27.206 12.855C27.372 12.7857 27.5501 12.75 27.7299 12.75C27.9098 12.75 28.0879 12.7857 28.2539 12.855C28.4199 12.9243 28.5705 13.0258 28.6969 13.1537L30.8479 15.3047C30.9758 15.4312 31.0774 15.5818 31.1467 15.7478C31.216 15.9137 31.2516 16.0918 31.2516 16.2717C31.2516 16.4516 31.216 16.6297 31.1467 16.7956C31.0774 16.9616 30.9758 17.1122 30.8479 17.2387L21.3159 26.7707C21.0625 27.0224 20.7202 27.1643 20.3629 27.1657H18.1979C18.019 27.166 17.8418 27.1309 17.6764 27.0626C17.511 26.9942 17.3608 26.8939 17.2343 26.7674C17.1077 26.6408 17.0074 26.4906 16.9391 26.3252C16.8707 26.1599 16.8357 25.9826 16.8359 25.8037Z" stroke="#005BC2" stroke-width="1.5" stroke-linecap="round" stroke-linejoin="round"/>
</svg>
