<svg width="187" height="44" viewBox="0 0 187 44" fill="none" xmlns="http://www.w3.org/2000/svg">
<path d="M27 29C26.45 29 25.9793 28.8043 25.588 28.413C25.1967 28.0217 25.0007 27.5507 25 27V17C25 16.45 25.196 15.9793 25.588 15.588C25.98 15.1967 26.4507 15.0007 27 15H37C37.55 15 38.021 15.196 38.413 15.588C38.805 15.98 39.0007 16.4507 39 17V27C39 27.55 38.8043 28.021 38.413 28.413C38.0217 28.805 37.5507 29.0007 37 29H27ZM41.288 28.712C41.096 28.5213 41 28.284 41 28V16C41 15.7167 41.096 15.4793 41.288 15.288C41.48 15.0967 41.7173 15.0007 42 15C42.2827 14.9993 42.5203 15.0953 42.713 15.288C42.9057 15.4807 43.0013 15.718 43 16V28C43 28.2833 42.904 28.521 42.712 28.713C42.52 28.905 42.2827 29.0007 42 29C41.7173 28.9993 41.48 28.9033 41.288 28.712ZM45.288 28.712C45.096 28.5213 45 28.284 45 28V16C45 15.7167 45.096 15.4793 45.288 15.288C45.48 15.0967 45.7173 15.0007 46 15C46.2827 14.9993 46.5203 15.0953 46.713 15.288C46.9057 15.4807 47.0013 15.718 47 16V28C47 28.2833 46.904 28.521 46.712 28.713C46.52 28.905 46.2827 29.0007 46 29C45.7173 28.9993 45.48 28.9033 45.288 28.712Z" fill="#005BC2"/>
<path d="M27 29C26.45 29 25.9793 28.8043 25.588 28.413C25.1967 28.0217 25.0007 27.5507 25 27V17C25 16.45 25.196 15.9793 25.588 15.588C25.98 15.1967 26.4507 15.0007 27 15H37C37.55 15 38.021 15.196 38.413 15.588C38.805 15.98 39.0007 16.4507 39 17V27C39 27.55 38.8043 28.021 38.413 28.413C38.0217 28.805 37.5507 29.0007 37 29H27ZM41.288 28.712C41.096 28.5213 41 28.284 41 28V16C41 15.7167 41.096 15.4793 41.288 15.288C41.48 15.0967 41.7173 15.0007 42 15C42.2827 14.9993 42.5203 15.0953 42.713 15.288C42.9057 15.4807 43.0013 15.718 43 16V28C43 28.2833 42.904 28.521 42.712 28.713C42.52 28.905 42.2827 29.0007 42 29C41.7173 28.9993 41.48 28.9033 41.288 28.712ZM45.288 28.712C45.096 28.5213 45 28.284 45 28V16C45 15.7167 45.096 15.4793 45.288 15.288C45.48 15.0967 45.7173 15.0007 46 15C46.2827 14.9993 46.5203 15.0953 46.713 15.288C46.9057 15.4807 47.0013 15.718 47 16V28C47 28.2833 46.904 28.521 46.712 28.713C46.52 28.905 46.2827 29.0007 46 29C45.7173 28.9993 45.48 28.9033 45.288 28.712Z" fill="#707075"/>
<path d="M69.2273 21.6818C69.2273 22.9091 69.0057 23.9697 68.5625 24.8636C68.1193 25.7576 67.5114 26.447 66.7386 26.9318C65.9659 27.4167 65.0833 27.6591 64.0909 27.6591C63.0985 27.6591 62.2159 27.4167 61.4432 26.9318C60.6705 26.447 60.0625 25.7576 59.6193 24.8636C59.1761 23.9697 58.9545 22.9091 58.9545 21.6818C58.9545 20.4545 59.1761 19.3939 59.6193 18.5C60.0625 17.6061 60.6705 16.9167 61.4432 16.4318C62.2159 15.947 63.0985 15.7045 64.0909 15.7045C65.0833 15.7045 65.9659 15.947 66.7386 16.4318C67.5114 16.9167 68.1193 17.6061 68.5625 18.5C69.0057 19.3939 69.2273 20.4545 69.2273 21.6818ZM67.8636 21.6818C67.8636 20.6742 67.6951 19.8239 67.358 19.1307C67.0246 18.4375 66.572 17.9129 66 17.5568C65.4318 17.2008 64.7955 17.0227 64.0909 17.0227C63.3864 17.0227 62.7481 17.2008 62.1761 17.5568C61.608 17.9129 61.1553 18.4375 60.8182 19.1307C60.4848 19.8239 60.3182 20.6742 60.3182 21.6818C60.3182 22.6894 60.4848 23.5398 60.8182 24.233C61.1553 24.9261 61.608 25.4508 62.1761 25.8068C62.7481 26.1629 63.3864 26.3409 64.0909 26.3409C64.7955 26.3409 65.4318 26.1629 66 25.8068C66.572 25.4508 67.0246 24.9261 67.358 24.233C67.6951 23.5398 67.8636 22.6894 67.8636 21.6818ZM78.5511 18.7727L75.3239 27.5H73.9602L70.733 18.7727H72.1875L74.5966 25.7273H74.6875L77.0966 18.7727H78.5511ZM83.6676 27.6818C82.8267 27.6818 82.1013 27.4962 81.4915 27.125C80.8854 26.75 80.4176 26.2273 80.0881 25.5568C79.7623 24.8826 79.5994 24.0985 79.5994 23.2045C79.5994 22.3106 79.7623 21.5227 80.0881 20.8409C80.4176 20.1553 80.8759 19.6212 81.4631 19.2386C82.054 18.8523 82.7434 18.6591 83.5312 18.6591C83.9858 18.6591 84.4347 18.7348 84.8778 18.8864C85.321 19.0379 85.7244 19.2841 86.0881 19.625C86.4517 19.9621 86.7415 20.4091 86.9574 20.9659C87.1733 21.5227 87.2812 22.2083 87.2812 23.0227V23.5909H80.554V22.4318H85.9176C85.9176 21.9394 85.8191 21.5 85.6222 21.1136C85.429 20.7273 85.1525 20.4223 84.7926 20.1989C84.4366 19.9754 84.0161 19.8636 83.5312 19.8636C82.9972 19.8636 82.535 19.9962 82.1449 20.2614C81.7585 20.5227 81.4612 20.8636 81.2528 21.2841C81.0445 21.7045 80.9403 22.1553 80.9403 22.6364V23.4091C80.9403 24.0682 81.054 24.6269 81.2812 25.0852C81.5123 25.5398 81.8324 25.8864 82.2415 26.125C82.6506 26.3598 83.1259 26.4773 83.6676 26.4773C84.0199 26.4773 84.3381 26.428 84.6222 26.3295C84.91 26.2273 85.1581 26.0758 85.3665 25.875C85.5748 25.6705 85.7358 25.4167 85.8494 25.1136L87.1449 25.4773C87.0085 25.9167 86.7794 26.303 86.4574 26.6364C86.1354 26.9659 85.7377 27.2235 85.2642 27.4091C84.7907 27.5909 84.2585 27.6818 83.6676 27.6818ZM89.321 27.5V18.7727H90.6165V20.0909H90.7074C90.8665 19.6591 91.1544 19.3087 91.571 19.0398C91.9877 18.7708 92.4574 18.6364 92.9801 18.6364C93.0786 18.6364 93.2017 18.6383 93.3494 18.642C93.4972 18.6458 93.6089 18.6515 93.6847 18.6591V20.0227C93.6392 20.0114 93.535 19.9943 93.3722 19.9716C93.2131 19.9451 93.0445 19.9318 92.8665 19.9318C92.4422 19.9318 92.0634 20.0208 91.7301 20.1989C91.4006 20.3731 91.1392 20.6155 90.946 20.9261C90.7566 21.233 90.6619 21.5833 90.6619 21.9773V27.5H89.321ZM102.676 18.7727L99.4489 27.5H98.0852L94.858 18.7727H96.3125L98.7216 25.7273H98.8125L101.222 18.7727H102.676ZM104.446 27.5V18.7727H105.787V27.5H104.446ZM105.128 17.3182C104.866 17.3182 104.641 17.2292 104.452 17.0511C104.266 16.8731 104.173 16.6591 104.173 16.4091C104.173 16.1591 104.266 15.9451 104.452 15.767C104.641 15.589 104.866 15.5 105.128 15.5C105.389 15.5 105.613 15.589 105.798 15.767C105.988 15.9451 106.082 16.1591 106.082 16.4091C106.082 16.6591 105.988 16.8731 105.798 17.0511C105.613 17.2292 105.389 17.3182 105.128 17.3182ZM111.902 27.6818C111.061 27.6818 110.336 27.4962 109.726 27.125C109.12 26.75 108.652 26.2273 108.322 25.5568C107.997 24.8826 107.834 24.0985 107.834 23.2045C107.834 22.3106 107.997 21.5227 108.322 20.8409C108.652 20.1553 109.11 19.6212 109.697 19.2386C110.288 18.8523 110.978 18.6591 111.766 18.6591C112.22 18.6591 112.669 18.7348 113.112 18.8864C113.555 19.0379 113.959 19.2841 114.322 19.625C114.686 19.9621 114.976 20.4091 115.192 20.9659C115.408 21.5227 115.516 22.2083 115.516 23.0227V23.5909H108.788V22.4318H114.152C114.152 21.9394 114.054 21.5 113.857 21.1136C113.663 20.7273 113.387 20.4223 113.027 20.1989C112.671 19.9754 112.25 19.8636 111.766 19.8636C111.232 19.8636 110.769 19.9962 110.379 20.2614C109.993 20.5227 109.696 20.8636 109.487 21.2841C109.279 21.7045 109.175 22.1553 109.175 22.6364V23.4091C109.175 24.0682 109.288 24.6269 109.516 25.0852C109.747 25.5398 110.067 25.8864 110.476 26.125C110.885 26.3598 111.36 26.4773 111.902 26.4773C112.254 26.4773 112.572 26.428 112.857 26.3295C113.144 26.2273 113.393 26.0758 113.601 25.875C113.809 25.6705 113.97 25.4167 114.084 25.1136L115.379 25.4773C115.243 25.9167 115.014 26.303 114.692 26.6364C114.37 26.9659 113.972 27.2235 113.499 27.4091C113.025 27.5909 112.493 27.6818 111.902 27.6818ZM119.533 27.5L116.874 18.7727H118.283L120.169 25.4545H120.26L122.124 18.7727H123.555L125.396 25.4318H125.487L127.374 18.7727H128.783L126.124 27.5H124.805L122.896 20.7955H122.76L120.851 27.5H119.533Z" fill="#005BC2"/>
<path d="M69.2273 21.6818C69.2273 22.9091 69.0057 23.9697 68.5625 24.8636C68.1193 25.7576 67.5114 26.447 66.7386 26.9318C65.9659 27.4167 65.0833 27.6591 64.0909 27.6591C63.0985 27.6591 62.2159 27.4167 61.4432 26.9318C60.6705 26.447 60.0625 25.7576 59.6193 24.8636C59.1761 23.9697 58.9545 22.9091 58.9545 21.6818C58.9545 20.4545 59.1761 19.3939 59.6193 18.5C60.0625 17.6061 60.6705 16.9167 61.4432 16.4318C62.2159 15.947 63.0985 15.7045 64.0909 15.7045C65.0833 15.7045 65.9659 15.947 66.7386 16.4318C67.5114 16.9167 68.1193 17.6061 68.5625 18.5C69.0057 19.3939 69.2273 20.4545 69.2273 21.6818ZM67.8636 21.6818C67.8636 20.6742 67.6951 19.8239 67.358 19.1307C67.0246 18.4375 66.572 17.9129 66 17.5568C65.4318 17.2008 64.7955 17.0227 64.0909 17.0227C63.3864 17.0227 62.7481 17.2008 62.1761 17.5568C61.608 17.9129 61.1553 18.4375 60.8182 19.1307C60.4848 19.8239 60.3182 20.6742 60.3182 21.6818C60.3182 22.6894 60.4848 23.5398 60.8182 24.233C61.1553 24.9261 61.608 25.4508 62.1761 25.8068C62.7481 26.1629 63.3864 26.3409 64.0909 26.3409C64.7955 26.3409 65.4318 26.1629 66 25.8068C66.572 25.4508 67.0246 24.9261 67.358 24.233C67.6951 23.5398 67.8636 22.6894 67.8636 21.6818ZM78.5511 18.7727L75.3239 27.5H73.9602L70.733 18.7727H72.1875L74.5966 25.7273H74.6875L77.0966 18.7727H78.5511ZM83.6676 27.6818C82.8267 27.6818 82.1013 27.4962 81.4915 27.125C80.8854 26.75 80.4176 26.2273 80.0881 25.5568C79.7623 24.8826 79.5994 24.0985 79.5994 23.2045C79.5994 22.3106 79.7623 21.5227 80.0881 20.8409C80.4176 20.1553 80.8759 19.6212 81.4631 19.2386C82.054 18.8523 82.7434 18.6591 83.5312 18.6591C83.9858 18.6591 84.4347 18.7348 84.8778 18.8864C85.321 19.0379 85.7244 19.2841 86.0881 19.625C86.4517 19.9621 86.7415 20.4091 86.9574 20.9659C87.1733 21.5227 87.2812 22.2083 87.2812 23.0227V23.5909H80.554V22.4318H85.9176C85.9176 21.9394 85.8191 21.5 85.6222 21.1136C85.429 20.7273 85.1525 20.4223 84.7926 20.1989C84.4366 19.9754 84.0161 19.8636 83.5312 19.8636C82.9972 19.8636 82.535 19.9962 82.1449 20.2614C81.7585 20.5227 81.4612 20.8636 81.2528 21.2841C81.0445 21.7045 80.9403 22.1553 80.9403 22.6364V23.4091C80.9403 24.0682 81.054 24.6269 81.2812 25.0852C81.5123 25.5398 81.8324 25.8864 82.2415 26.125C82.6506 26.3598 83.1259 26.4773 83.6676 26.4773C84.0199 26.4773 84.3381 26.428 84.6222 26.3295C84.91 26.2273 85.1581 26.0758 85.3665 25.875C85.5748 25.6705 85.7358 25.4167 85.8494 25.1136L87.1449 25.4773C87.0085 25.9167 86.7794 26.303 86.4574 26.6364C86.1354 26.9659 85.7377 27.2235 85.2642 27.4091C84.7907 27.5909 84.2585 27.6818 83.6676 27.6818ZM89.321 27.5V18.7727H90.6165V20.0909H90.7074C90.8665 19.6591 91.1544 19.3087 91.571 19.0398C91.9877 18.7708 92.4574 18.6364 92.9801 18.6364C93.0786 18.6364 93.2017 18.6383 93.3494 18.642C93.4972 18.6458 93.6089 18.6515 93.6847 18.6591V20.0227C93.6392 20.0114 93.535 19.9943 93.3722 19.9716C93.2131 19.9451 93.0445 19.9318 92.8665 19.9318C92.4422 19.9318 92.0634 20.0208 91.7301 20.1989C91.4006 20.3731 91.1392 20.6155 90.946 20.9261C90.7566 21.233 90.6619 21.5833 90.6619 21.9773V27.5H89.321ZM102.676 18.7727L99.4489 27.5H98.0852L94.858 18.7727H96.3125L98.7216 25.7273H98.8125L101.222 18.7727H102.676ZM104.446 27.5V18.7727H105.787V27.5H104.446ZM105.128 17.3182C104.866 17.3182 104.641 17.2292 104.452 17.0511C104.266 16.8731 104.173 16.6591 104.173 16.4091C104.173 16.1591 104.266 15.9451 104.452 15.767C104.641 15.589 104.866 15.5 105.128 15.5C105.389 15.5 105.613 15.589 105.798 15.767C105.988 15.9451 106.082 16.1591 106.082 16.4091C106.082 16.6591 105.988 16.8731 105.798 17.0511C105.613 17.2292 105.389 17.3182 105.128 17.3182ZM111.902 27.6818C111.061 27.6818 110.336 27.4962 109.726 27.125C109.12 26.75 108.652 26.2273 108.322 25.5568C107.997 24.8826 107.834 24.0985 107.834 23.2045C107.834 22.3106 107.997 21.5227 108.322 20.8409C108.652 20.1553 109.11 19.6212 109.697 19.2386C110.288 18.8523 110.978 18.6591 111.766 18.6591C112.22 18.6591 112.669 18.7348 113.112 18.8864C113.555 19.0379 113.959 19.2841 114.322 19.625C114.686 19.9621 114.976 20.4091 115.192 20.9659C115.408 21.5227 115.516 22.2083 115.516 23.0227V23.5909H108.788V22.4318H114.152C114.152 21.9394 114.054 21.5 113.857 21.1136C113.663 20.7273 113.387 20.4223 113.027 20.1989C112.671 19.9754 112.25 19.8636 111.766 19.8636C111.232 19.8636 110.769 19.9962 110.379 20.2614C109.993 20.5227 109.696 20.8636 109.487 21.2841C109.279 21.7045 109.175 22.1553 109.175 22.6364V23.4091C109.175 24.0682 109.288 24.6269 109.516 25.0852C109.747 25.5398 110.067 25.8864 110.476 26.125C110.885 26.3598 111.36 26.4773 111.902 26.4773C112.254 26.4773 112.572 26.428 112.857 26.3295C113.144 26.2273 113.393 26.0758 113.601 25.875C113.809 25.6705 113.97 25.4167 114.084 25.1136L115.379 25.4773C115.243 25.9167 115.014 26.303 114.692 26.6364C114.37 26.9659 113.972 27.2235 113.499 27.4091C113.025 27.5909 112.493 27.6818 111.902 27.6818ZM119.533 27.5L116.874 18.7727H118.283L120.169 25.4545H120.26L122.124 18.7727H123.555L125.396 25.4318H125.487L127.374 18.7727H128.783L126.124 27.5H124.805L122.896 20.7955H122.76L120.851 27.5H119.533Z" fill="#707075"/>
</svg>
