<svg width="187" height="44" viewBox="0 0 187 44" fill="none" xmlns="http://www.w3.org/2000/svg">
<path d="M40 27V29H26V27C26 27 26 23 33 23C40 23 40 27 40 27ZM36.5 17.5C36.5 16.8078 36.2947 16.1311 35.9101 15.5555C35.5256 14.98 34.9789 14.5314 34.3394 14.2665C33.6999 14.0016 32.9961 13.9322 32.3172 14.0673C31.6382 14.2023 31.0146 14.5357 30.5251 15.0252C30.0356 15.5146 29.7023 16.1383 29.5673 16.8172C29.4322 17.4962 29.5015 18.1999 29.7664 18.8394C30.0313 19.479 30.4799 20.0256 31.0555 20.4102C31.6311 20.7948 32.3078 21 33 21C33.9283 21 34.8185 20.6313 35.4749 19.9749C36.1313 19.3185 36.5 18.4283 36.5 17.5ZM39.94 23C40.5547 23.4758 41.0578 24.0805 41.4137 24.7715C41.7696 25.4626 41.9697 26.2233 42 27V29H46V27C46 27 46 23.37 39.94 23ZM39 14C38.3118 13.9968 37.6388 14.2026 37.07 14.59C37.6774 15.4388 38.0041 16.4563 38.0041 17.5C38.0041 18.5438 37.6774 19.5613 37.07 20.41C37.6388 20.7975 38.3118 21.0032 39 21C39.9283 21 40.8185 20.6313 41.4749 19.9749C42.1313 19.3185 42.5 18.4283 42.5 17.5C42.5 16.5718 42.1313 15.6815 41.4749 15.0252C40.8185 14.3688 39.9283 14 39 14Z" fill="#005BC2"/>
<path d="M40 27V29H26V27C26 27 26 23 33 23C40 23 40 27 40 27ZM36.5 17.5C36.5 16.8078 36.2947 16.1311 35.9101 15.5555C35.5256 14.98 34.9789 14.5314 34.3394 14.2665C33.6999 14.0016 32.9961 13.9322 32.3172 14.0673C31.6382 14.2023 31.0146 14.5357 30.5251 15.0252C30.0356 15.5146 29.7023 16.1383 29.5673 16.8172C29.4322 17.4962 29.5015 18.1999 29.7664 18.8394C30.0313 19.479 30.4799 20.0256 31.0555 20.4102C31.6311 20.7948 32.3078 21 33 21C33.9283 21 34.8185 20.6313 35.4749 19.9749C36.1313 19.3185 36.5 18.4283 36.5 17.5ZM39.94 23C40.5547 23.4758 41.0578 24.0805 41.4137 24.7715C41.7696 25.4626 41.9697 26.2233 42 27V29H46V27C46 27 46 23.37 39.94 23ZM39 14C38.3118 13.9968 37.6388 14.2026 37.07 14.59C37.6774 15.4388 38.0041 16.4563 38.0041 17.5C38.0041 18.5438 37.6774 19.5613 37.07 20.41C37.6388 20.7975 38.3118 21.0032 39 21C39.9283 21 40.8185 20.6313 41.4749 19.9749C42.1313 19.3185 42.5 18.4283 42.5 17.5C42.5 16.5718 42.1313 15.6815 41.4749 15.0252C40.8185 14.3688 39.9283 14 39 14Z" fill="#707075"/>
<path d="M67.0455 15.8636H68.4545V23.5682C68.4545 24.3636 68.267 25.0739 67.892 25.6989C67.5208 26.3201 66.9962 26.8106 66.3182 27.1705C65.6402 27.5265 64.8447 27.7045 63.9318 27.7045C63.0189 27.7045 62.2235 27.5265 61.5455 27.1705C60.8674 26.8106 60.3409 26.3201 59.9659 25.6989C59.5947 25.0739 59.4091 24.3636 59.4091 23.5682V15.8636H60.8182V23.4545C60.8182 24.0227 60.9432 24.5284 61.1932 24.9716C61.4432 25.411 61.7992 25.7576 62.2614 26.0114C62.7273 26.2614 63.2841 26.3864 63.9318 26.3864C64.5795 26.3864 65.1364 26.2614 65.6023 26.0114C66.0682 25.7576 66.4242 25.411 66.6705 24.9716C66.9205 24.5284 67.0455 24.0227 67.0455 23.4545V15.8636ZM77.2685 20.7273L76.0639 21.0682C75.9882 20.8674 75.8764 20.6723 75.7287 20.483C75.5848 20.2898 75.3878 20.1307 75.1378 20.0057C74.8878 19.8807 74.5677 19.8182 74.1776 19.8182C73.6435 19.8182 73.1984 19.9413 72.8423 20.1875C72.4901 20.4299 72.3139 20.7386 72.3139 21.1136C72.3139 21.447 72.4351 21.7102 72.6776 21.9034C72.92 22.0966 73.2988 22.2576 73.8139 22.3864L75.1094 22.7045C75.8897 22.8939 76.4711 23.1837 76.8537 23.5739C77.2363 23.9602 77.4276 24.4583 77.4276 25.0682C77.4276 25.5682 77.2836 26.0152 76.9957 26.4091C76.7116 26.803 76.3139 27.1136 75.8026 27.3409C75.2912 27.5682 74.6965 27.6818 74.0185 27.6818C73.1283 27.6818 72.3916 27.4886 71.8082 27.1023C71.2249 26.7159 70.8556 26.1515 70.7003 25.4091L71.973 25.0909C72.0942 25.5606 72.3234 25.9129 72.6605 26.1477C73.0014 26.3826 73.4465 26.5 73.9957 26.5C74.6207 26.5 75.117 26.3674 75.4844 26.1023C75.8556 25.8333 76.0412 25.5114 76.0412 25.1364C76.0412 24.8333 75.9351 24.5795 75.723 24.375C75.5109 24.1667 75.1851 24.0114 74.7457 23.9091L73.2912 23.5682C72.492 23.3788 71.9048 23.0852 71.5298 22.6875C71.1586 22.286 70.973 21.7841 70.973 21.1818C70.973 20.6894 71.1113 20.2538 71.3878 19.875C71.6681 19.4962 72.0488 19.1989 72.5298 18.983C73.0147 18.767 73.5639 18.6591 74.1776 18.6591C75.0412 18.6591 75.7192 18.8485 76.2116 19.2273C76.7079 19.6061 77.0601 20.1061 77.2685 20.7273ZM83.1051 27.6818C82.2642 27.6818 81.5388 27.4962 80.929 27.125C80.3229 26.75 79.8551 26.2273 79.5256 25.5568C79.1998 24.8826 79.0369 24.0985 79.0369 23.2045C79.0369 22.3106 79.1998 21.5227 79.5256 20.8409C79.8551 20.1553 80.3134 19.6212 80.9006 19.2386C81.4915 18.8523 82.1809 18.6591 82.9688 18.6591C83.4233 18.6591 83.8722 18.7348 84.3153 18.8864C84.7585 19.0379 85.1619 19.2841 85.5256 19.625C85.8892 19.9621 86.179 20.4091 86.3949 20.9659C86.6108 21.5227 86.7188 22.2083 86.7188 23.0227V23.5909H79.9915V22.4318H85.3551C85.3551 21.9394 85.2566 21.5 85.0597 21.1136C84.8665 20.7273 84.59 20.4223 84.2301 20.1989C83.8741 19.9754 83.4536 19.8636 82.9688 19.8636C82.4347 19.8636 81.9725 19.9962 81.5824 20.2614C81.196 20.5227 80.8987 20.8636 80.6903 21.2841C80.482 21.7045 80.3778 22.1553 80.3778 22.6364V23.4091C80.3778 24.0682 80.4915 24.6269 80.7188 25.0852C80.9498 25.5398 81.2699 25.8864 81.679 26.125C82.0881 26.3598 82.5634 26.4773 83.1051 26.4773C83.4574 26.4773 83.7756 26.428 84.0597 26.3295C84.3475 26.2273 84.5956 26.0758 84.804 25.875C85.0123 25.6705 85.1733 25.4167 85.2869 25.1136L86.5824 25.4773C86.446 25.9167 86.2169 26.303 85.8949 26.6364C85.5729 26.9659 85.1752 27.2235 84.7017 27.4091C84.2282 27.5909 83.696 27.6818 83.1051 27.6818ZM88.7585 27.5V18.7727H90.054V20.0909H90.1449C90.304 19.6591 90.5919 19.3087 91.0085 19.0398C91.4252 18.7708 91.8949 18.6364 92.4176 18.6364C92.5161 18.6364 92.6392 18.6383 92.7869 18.642C92.9347 18.6458 93.0464 18.6515 93.1222 18.6591V20.0227C93.0767 20.0114 92.9725 19.9943 92.8097 19.9716C92.6506 19.9451 92.482 19.9318 92.304 19.9318C91.8797 19.9318 91.5009 20.0208 91.1676 20.1989C90.8381 20.3731 90.5767 20.6155 90.3835 20.9261C90.1941 21.233 90.0994 21.5833 90.0994 21.9773V27.5H88.7585Z" fill="#005BC2"/>
<path d="M67.0455 15.8636H68.4545V23.5682C68.4545 24.3636 68.267 25.0739 67.892 25.6989C67.5208 26.3201 66.9962 26.8106 66.3182 27.1705C65.6402 27.5265 64.8447 27.7045 63.9318 27.7045C63.0189 27.7045 62.2235 27.5265 61.5455 27.1705C60.8674 26.8106 60.3409 26.3201 59.9659 25.6989C59.5947 25.0739 59.4091 24.3636 59.4091 23.5682V15.8636H60.8182V23.4545C60.8182 24.0227 60.9432 24.5284 61.1932 24.9716C61.4432 25.411 61.7992 25.7576 62.2614 26.0114C62.7273 26.2614 63.2841 26.3864 63.9318 26.3864C64.5795 26.3864 65.1364 26.2614 65.6023 26.0114C66.0682 25.7576 66.4242 25.411 66.6705 24.9716C66.9205 24.5284 67.0455 24.0227 67.0455 23.4545V15.8636ZM77.2685 20.7273L76.0639 21.0682C75.9882 20.8674 75.8764 20.6723 75.7287 20.483C75.5848 20.2898 75.3878 20.1307 75.1378 20.0057C74.8878 19.8807 74.5677 19.8182 74.1776 19.8182C73.6435 19.8182 73.1984 19.9413 72.8423 20.1875C72.4901 20.4299 72.3139 20.7386 72.3139 21.1136C72.3139 21.447 72.4351 21.7102 72.6776 21.9034C72.92 22.0966 73.2988 22.2576 73.8139 22.3864L75.1094 22.7045C75.8897 22.8939 76.4711 23.1837 76.8537 23.5739C77.2363 23.9602 77.4276 24.4583 77.4276 25.0682C77.4276 25.5682 77.2836 26.0152 76.9957 26.4091C76.7116 26.803 76.3139 27.1136 75.8026 27.3409C75.2912 27.5682 74.6965 27.6818 74.0185 27.6818C73.1283 27.6818 72.3916 27.4886 71.8082 27.1023C71.2249 26.7159 70.8556 26.1515 70.7003 25.4091L71.973 25.0909C72.0942 25.5606 72.3234 25.9129 72.6605 26.1477C73.0014 26.3826 73.4465 26.5 73.9957 26.5C74.6207 26.5 75.117 26.3674 75.4844 26.1023C75.8556 25.8333 76.0412 25.5114 76.0412 25.1364C76.0412 24.8333 75.9351 24.5795 75.723 24.375C75.5109 24.1667 75.1851 24.0114 74.7457 23.9091L73.2912 23.5682C72.492 23.3788 71.9048 23.0852 71.5298 22.6875C71.1586 22.286 70.973 21.7841 70.973 21.1818C70.973 20.6894 71.1113 20.2538 71.3878 19.875C71.6681 19.4962 72.0488 19.1989 72.5298 18.983C73.0147 18.767 73.5639 18.6591 74.1776 18.6591C75.0412 18.6591 75.7192 18.8485 76.2116 19.2273C76.7079 19.6061 77.0601 20.1061 77.2685 20.7273ZM83.1051 27.6818C82.2642 27.6818 81.5388 27.4962 80.929 27.125C80.3229 26.75 79.8551 26.2273 79.5256 25.5568C79.1998 24.8826 79.0369 24.0985 79.0369 23.2045C79.0369 22.3106 79.1998 21.5227 79.5256 20.8409C79.8551 20.1553 80.3134 19.6212 80.9006 19.2386C81.4915 18.8523 82.1809 18.6591 82.9688 18.6591C83.4233 18.6591 83.8722 18.7348 84.3153 18.8864C84.7585 19.0379 85.1619 19.2841 85.5256 19.625C85.8892 19.9621 86.179 20.4091 86.3949 20.9659C86.6108 21.5227 86.7188 22.2083 86.7188 23.0227V23.5909H79.9915V22.4318H85.3551C85.3551 21.9394 85.2566 21.5 85.0597 21.1136C84.8665 20.7273 84.59 20.4223 84.2301 20.1989C83.8741 19.9754 83.4536 19.8636 82.9688 19.8636C82.4347 19.8636 81.9725 19.9962 81.5824 20.2614C81.196 20.5227 80.8987 20.8636 80.6903 21.2841C80.482 21.7045 80.3778 22.1553 80.3778 22.6364V23.4091C80.3778 24.0682 80.4915 24.6269 80.7188 25.0852C80.9498 25.5398 81.2699 25.8864 81.679 26.125C82.0881 26.3598 82.5634 26.4773 83.1051 26.4773C83.4574 26.4773 83.7756 26.428 84.0597 26.3295C84.3475 26.2273 84.5956 26.0758 84.804 25.875C85.0123 25.6705 85.1733 25.4167 85.2869 25.1136L86.5824 25.4773C86.446 25.9167 86.2169 26.303 85.8949 26.6364C85.5729 26.9659 85.1752 27.2235 84.7017 27.4091C84.2282 27.5909 83.696 27.6818 83.1051 27.6818ZM88.7585 27.5V18.7727H90.054V20.0909H90.1449C90.304 19.6591 90.5919 19.3087 91.0085 19.0398C91.4252 18.7708 91.8949 18.6364 92.4176 18.6364C92.5161 18.6364 92.6392 18.6383 92.7869 18.642C92.9347 18.6458 93.0464 18.6515 93.1222 18.6591V20.0227C93.0767 20.0114 92.9725 19.9943 92.8097 19.9716C92.6506 19.9451 92.482 19.9318 92.304 19.9318C91.8797 19.9318 91.5009 20.0208 91.1676 20.1989C90.8381 20.3731 90.5767 20.6155 90.3835 20.9261C90.1941 21.233 90.0994 21.5833 90.0994 21.9773V27.5H88.7585Z" fill="#707075"/>
</svg>
